<?xml version="1.0" standalone="no"?>
<!DOCTYPE svg PUBLIC "-//W3C//DTD SVG 20010904//EN"
 "http://www.w3.org/TR/2001/REC-SVG-20010904/DTD/svg10.dtd">
<svg version="1.0" xmlns="http://www.w3.org/2000/svg"
 width="1354.000000pt" height="1020.000000pt" viewBox="0 0 1354.000000 1020.000000"
 preserveAspectRatio="xMidYMid meet">

<g transform="translate(0.000000,1020.000000) scale(0.100000,-0.100000)"
fill="#000000" stroke="none">
<path d="M6395 10061 c-337 -137 -915 -370 -1550 -626 -181 -73 -715 -288
-1185 -478 -1230 -496 -1668 -673 -1727 -696 l-52 -20 -11 39 c-6 22 -24 50
-42 65 -28 24 -39 27 -86 23 -71 -6 -103 -37 -113 -110 -4 -29 -8 -903 -8
-1943 l-1 -1890 -224 -595 c-189 -504 -221 -596 -207 -602 19 -8 1141 -11
1141 -3 0 3 -101 275 -225 605 l-225 600 0 1150 c0 632 4 1150 8 1150 5 0 410
-162 902 -360 491 -198 894 -360 895 -360 2 0 5 118 8 263 4 243 6 269 30 353
179 633 927 1155 1977 1378 115 24 330 60 425 70 28 3 91 11 140 17 117 14
769 20 905 9 851 -75 1549 -305 2051 -676 137 -101 349 -314 422 -425 67 -101
128 -221 156 -304 45 -136 55 -219 55 -457 1 -126 2 -228 4 -228 2 0 483 193
1597 643 319 129 914 369 1322 533 408 164 739 302 735 305 -4 4 -97 43 -207
87 -193 77 -2429 979 -3235 1304 -217 87 -647 261 -955 385 -308 124 -955 384
-1437 579 -576 233 -888 354 -910 353 -18 0 -186 -63 -373 -138z m-4432 -6574
c2 -9 -412 -11 -421 -2 -4 4 150 426 195 535 l15 35 104 -279 c58 -154 106
-284 107 -289z"/>
<path d="M1260 7990 c-63 -26 -365 -148 -670 -270 -305 -123 -558 -226 -562
-229 -4 -3 113 -54 260 -113 147 -59 451 -181 676 -272 226 -91 411 -164 413
-162 2 1 2 248 1 548 l-3 545 -115 -47z"/>
<path d="M6350 7884 c-1046 -93 -1892 -482 -2269 -1042 -57 -84 -114 -207
-148 -317 l-28 -90 -5 -1240 c-5 -1155 -7 -1243 -23 -1290 -50 -139 -98 -408
-118 -650 -17 -211 -3 -489 35 -712 7 -40 11 -73 10 -73 -1 0 -206 45 -455
101 -392 87 -456 99 -476 88 -53 -29 -38 -102 24 -118 21 -5 438 -98 928 -207
815 -180 892 -195 915 -182 32 18 39 69 13 95 -13 12 -97 35 -270 73 l-252 55
-20 85 c-121 514 -76 1082 124 1572 111 272 263 521 451 738 68 78 125 110
360 203 350 139 780 235 1209 272 211 17 738 13 928 -9 481 -54 884 -158 1256
-321 l151 -67 86 -102 c175 -205 348 -498 449 -755 152 -391 208 -866 150
-1291 -14 -111 -53 -300 -64 -317 -3 -6 -115 -34 -249 -63 -255 -56 -292 -70
-292 -116 0 -27 32 -64 55 -64 8 0 338 72 732 159 395 88 804 178 908 201 105
23 200 48 213 56 28 18 29 67 2 94 -11 11 -24 20 -29 20 -5 0 -211 -45 -457
-99 -247 -55 -450 -98 -452 -96 -2 2 1 35 8 72 29 177 39 315 36 543 -5 306
-36 531 -112 791 l-34 118 0 1193 c0 1132 -1 1197 -19 1278 -46 207 -145 385
-312 564 -412 440 -1127 739 -2014 841 -194 23 -737 28 -945 9z"/>
<path d="M5488 3707 c-103 -39 -182 -110 -227 -206 -22 -48 -26 -69 -26 -151
0 -82 4 -103 27 -152 35 -76 104 -148 175 -184 53 -27 67 -29 163 -29 96 0
110 2 163 29 67 34 150 118 177 179 64 143 33 310 -77 420 -73 73 -138 101
-247 104 -59 2 -104 -2 -128 -10z"/>
<path d="M7821 3704 c-97 -34 -174 -106 -220 -203 -22 -48 -26 -69 -26 -151 0
-82 4 -103 27 -152 37 -80 105 -149 181 -184 55 -26 73 -29 162 -29 89 0 106
3 157 28 76 37 159 128 188 204 73 195 -29 415 -224 483 -68 24 -182 26 -245
4z"/>
<path d="M6550 2659 c-151 -17 -265 -56 -295 -102 -36 -55 -32 -71 78 -292
159 -320 269 -496 348 -554 127 -94 256 41 523 549 48 91 92 183 98 205 29
106 -44 169 -227 195 -83 11 -418 11 -525 -1z"/>
<path d="M3915 2070 c25 -72 45 -135 45 -140 0 -6 -193 -10 -543 -10 -514 0
-545 -1 -560 -18 -23 -25 -21 -65 4 -88 20 -18 51 -19 946 -19 l925 0 19 24
c24 30 24 56 -1 81 -18 18 -33 20 -186 20 l-165 0 -35 78 c-19 42 -38 84 -43
92 -5 9 -82 31 -217 62 -115 26 -214 48 -221 48 -8 0 4 -47 32 -130z"/>
<path d="M9435 2152 l-209 -47 -40 -93 -39 -92 -166 0 c-91 0 -171 -4 -177 -8
-6 -4 -16 -17 -23 -30 -16 -30 5 -74 39 -83 14 -4 429 -7 923 -8 960 -1 949
-2 959 46 5 22 -9 65 -25 75 -7 4 -256 8 -554 8 -299 0 -543 3 -543 6 0 4 20
65 45 136 25 71 45 131 45 134 0 7 -21 3 -235 -44z"/>
<path d="M4090 1667 c0 -12 74 -150 102 -190 11 -16 19 -29 17 -31 -2 -1 -296
-71 -654 -155 -357 -84 -660 -159 -672 -167 -33 -21 -32 -78 2 -100 23 -15 65
-6 942 200 666 157 921 221 931 233 21 29 15 71 -13 89 -21 14 -34 15 -76 7
l-51 -10 -41 62 c-38 58 -46 64 -84 70 -67 10 -403 3 -403 -8z"/>
<path d="M8969 1611 c-25 -36 -49 -65 -54 -64 -97 15 -103 15 -124 -6 -26 -26
-27 -52 -3 -81 15 -18 152 -53 927 -236 972 -229 942 -224 967 -169 10 22 8
30 -9 53 -19 25 -47 33 -394 114 -405 95 -650 153 -826 195 -62 15 -113 31
-113 35 0 4 13 29 28 55 65 108 91 162 82 168 -5 3 -106 5 -223 4 l-214 -1
-44 -67z"/>
<path d="M4572 1280 c-111 -26 -205 -49 -207 -51 -8 -9 182 -226 289 -332 467
-461 1058 -750 1727 -844 177 -25 605 -25 779 0 685 99 1263 383 1736 852 108
107 284 308 284 325 0 3 -93 28 -207 54 l-208 48 -110 -112 c-146 -149 -271
-253 -435 -362 -354 -235 -777 -385 -1210 -427 -151 -15 -464 -6 -624 19 -572
87 -1065 337 -1480 752 -70 70 -129 128 -130 127 0 -1 -92 -22 -204 -49z"/>
</g>
</svg>
