<svg width="100" height="76" viewBox="0 0 100 76" fill="none" xmlns="http://www.w3.org/2000/svg">
<g clip-path="url(#clip0_70_136)">
<path d="M47.2304 1.0266C44.7415 2.03841 40.4727 3.75924 35.7829 5.64994C34.4461 6.18908 30.5022 7.77697 27.031 9.18022C17.9468 12.8434 14.7119 14.1507 14.2762 14.3205L13.8922 14.4683L13.8109 14.1802C13.7666 14.0177 13.6337 13.8109 13.5007 13.7002C13.2939 13.5229 13.2127 13.5007 12.8656 13.5303C12.3412 13.5746 12.1049 13.8036 12.031 14.3427C12.0015 14.5569 11.9719 21.0118 11.9719 28.6928L11.9645 42.6514L10.3102 47.0458C8.91431 50.7681 8.67798 51.4476 8.78137 51.4919C8.9217 51.551 17.2083 51.5731 17.2083 51.514C17.2083 51.4919 16.4623 49.483 15.5465 47.0458L13.8848 42.6145V34.1211C13.8848 29.4535 13.9143 25.6278 13.9439 25.6278C13.9808 25.6278 16.9719 26.8242 20.6056 28.2866C24.2319 29.7489 27.2083 30.9454 27.2156 30.9454C27.2304 30.9454 27.2526 30.0739 27.2747 29.003C27.3043 27.2083 27.319 27.0163 27.4963 26.3959C28.8183 21.7208 34.3427 17.8656 42.0975 16.2186C42.9468 16.0414 44.5347 15.7755 45.2363 15.7016C45.4431 15.6795 45.9084 15.6204 46.2703 15.5761C47.1344 15.4727 51.9498 15.4284 52.9542 15.5096C59.2393 16.0635 64.3944 17.7622 68.1019 20.5022C69.1137 21.2482 70.6795 22.8213 71.2186 23.6411C71.7134 24.387 72.1639 25.2733 72.3707 25.8863C72.7031 26.8907 72.7769 27.5037 72.7769 29.2615C72.7843 30.192 72.7917 30.9454 72.8065 30.9454C72.8213 30.9454 76.3737 29.5199 84.6012 26.1965C86.9572 25.2437 91.3515 23.4712 94.3648 22.26C97.3781 21.0488 99.8227 20.0296 99.7932 20.0074C99.7636 19.9779 99.0768 19.6898 98.2644 19.3649C96.839 18.7962 80.325 12.1344 74.3722 9.73413C72.7696 9.09159 69.5938 7.80651 67.319 6.89071C65.0443 5.9749 60.2659 4.05466 56.706 2.61449C52.452 0.893658 50.1477 1.14441e-05 49.9852 0.0073967C49.8523 0.0073967 48.6115 0.472683 47.2304 1.0266ZM14.4978 49.579C14.5125 49.6455 11.4549 49.6603 11.3885 49.5938C11.3589 49.5643 12.4963 46.4476 12.8286 45.6425L12.9394 45.3841L13.7075 47.4446C14.1359 48.582 14.4904 49.5421 14.4978 49.579Z" fill="#06234F"/>
<path d="M9.30576 16.322C8.84047 16.514 6.61004 17.4151 4.35746 18.3161C2.10487 19.2245 0.236332 19.9852 0.20679 20.0074C0.177248 20.0296 1.04135 20.4062 2.12703 20.842C3.2127 21.2777 5.4579 22.1787 7.11964 22.8508C8.78877 23.5229 10.1551 24.0621 10.1699 24.0473C10.1846 24.0399 10.1846 22.2157 10.1772 20L10.1551 15.9749L9.30576 16.322Z" fill="#06234F"/>
<path d="M46.8981 17.1049C39.1728 17.7917 32.9247 20.6647 30.1403 24.8006C29.7194 25.421 29.2984 26.3294 29.0473 27.1418L28.8405 27.8065L28.8035 36.9646C28.7666 45.4948 28.7518 46.1448 28.6337 46.4919C28.2644 47.5185 27.9099 49.5052 27.7622 51.2925C27.6366 52.8508 27.74 54.904 28.0207 56.551C28.0724 56.8464 28.1019 57.0901 28.0945 57.0901C28.0872 57.0901 26.5731 56.7578 24.7341 56.3442C21.839 55.7016 21.3663 55.613 21.2186 55.6943C20.8272 55.9084 20.938 56.4476 21.3959 56.5657C21.551 56.6027 24.6307 57.2895 28.2496 58.0946C34.2688 59.4239 34.8375 59.5347 35.0074 59.4387C35.2437 59.3058 35.2954 58.9291 35.1034 58.7371C35.0074 58.6485 34.387 58.4786 33.1093 58.1979L31.2482 57.7917L31.1004 57.164C30.2068 53.3678 30.5391 49.1728 32.0163 45.5539C32.836 43.5451 33.9586 41.7061 35.3471 40.1034C35.8493 39.5273 36.2703 39.291 38.0059 38.6042C40.5908 37.5776 43.7666 36.8686 46.935 36.5953C48.4934 36.4697 52.3855 36.4993 53.7888 36.6618C57.3412 37.0606 60.3176 37.8287 63.065 39.0325L64.1802 39.5273L64.8154 40.2807C66.1078 41.7947 67.3855 43.9587 68.1315 45.8567C69.2541 48.7445 69.6677 52.2526 69.2393 55.3915C69.1359 56.2112 68.8479 57.6071 68.7666 57.7327C68.7445 57.777 67.9173 57.9838 66.9276 58.1979C65.0443 58.6115 64.7711 58.7149 64.7711 59.0547C64.7711 59.2541 65.0074 59.5273 65.1773 59.5273C65.2363 59.5273 67.6736 58.9956 70.5835 58.353C73.5007 57.7031 76.5214 57.0384 77.2895 56.8686C78.065 56.6987 78.7666 56.5141 78.8626 56.455C79.0694 56.322 79.0768 55.9601 78.8774 55.7607C78.7962 55.6795 78.7002 55.613 78.6632 55.613C78.6263 55.613 77.1049 55.9454 75.288 56.3442C73.4638 56.7504 71.9646 57.068 71.9498 57.0532C71.935 57.0384 71.9572 56.7947 72.0089 56.5214C72.223 55.2142 72.2969 54.195 72.2747 52.5111C72.2378 50.2511 72.0089 48.5894 71.4476 46.6691L71.1965 45.7977V36.9867C71.1965 28.6263 71.1891 28.1463 71.0561 27.548C70.7164 26.0192 69.9852 24.7046 68.7519 23.3826C65.709 20.133 60.4284 17.9247 53.8774 17.1714C52.4446 17.0015 48.4343 16.9646 46.8981 17.1049Z" fill="#0D41E1"/>
<path d="M30.1403 24.8006C32.9247 20.6647 39.1728 17.7917 46.8981 17.1049C48.4343 16.9646 52.4446 17.0015 53.8774 17.1714C60.4283 17.9247 65.709 20.1329 68.7518 23.3826C69.9852 24.7046 70.7164 26.0192 71.0561 27.548C71.1891 28.1462 71.1964 28.6263 71.1964 36.9867V45.7976C68.5 41.5 64.1802 39.5273 64.1802 39.5273L63.065 39.0325C60.3176 37.8287 57.3412 37.0606 53.7888 36.6618C52.3855 36.4993 48.4933 36.4697 46.935 36.5953C43.7666 36.8685 40.5908 37.5776 38.0059 38.6041C33.5 40 29.1359 45.9158 28.6337 46.4919C28.7518 46.1448 28.7666 45.4948 28.8035 36.9646L28.8405 27.8065L29.0473 27.1418C29.2984 26.3294 29.7193 25.421 30.1403 24.8006Z" fill="#06234F"/>
<path d="M40.5317 47.9542C39.771 48.2422 39.1876 48.7666 38.8552 49.4756C38.6928 49.8301 38.6632 49.9852 38.6632 50.5908C38.6632 51.1965 38.6928 51.3516 38.8626 51.7134C39.1211 52.2747 39.6307 52.8065 40.1551 53.0724C40.5465 53.2718 40.6499 53.2866 41.3589 53.2866C42.0679 53.2866 42.1713 53.2718 42.5628 53.0724C43.0576 52.8213 43.6706 52.2009 43.87 51.7504C44.3427 50.6942 44.1137 49.4609 43.3013 48.6485C42.7622 48.1093 42.2821 47.9025 41.4771 47.8804C41.0413 47.8656 40.709 47.8951 40.5317 47.9542Z" fill="#0D41E1"/>
<path d="M57.7622 47.9764C57.0458 48.2275 56.4771 48.7592 56.1373 49.4756C55.9749 49.8301 55.9453 49.9852 55.9453 50.5908C55.9453 51.1965 55.9749 51.3516 56.1447 51.7134C56.418 52.3043 56.9202 52.8139 57.4815 53.0724C57.8877 53.2644 58.0206 53.2866 58.678 53.2866C59.3353 53.2866 59.4608 53.2644 59.8375 53.0798C60.3988 52.8065 61.0118 52.1344 61.226 51.5731C61.7651 50.1329 61.0118 48.5081 59.5716 48.0059C59.0694 47.8287 58.2274 47.8139 57.7622 47.9764Z" fill="#0D41E1"/>
<path d="M48.3752 55.6943C47.26 55.8198 46.418 56.1079 46.1965 56.4476C45.9306 56.8538 45.9601 56.972 46.7725 58.6042C47.9468 60.9675 48.7592 62.2674 49.3427 62.6957C50.2807 63.39 51.2334 62.3929 53.2053 58.6411C53.5598 57.969 53.8848 57.2895 53.9291 57.1271C54.1433 56.3442 53.6041 55.8789 52.2526 55.6869C51.6396 55.6056 49.1654 55.6056 48.3752 55.6943Z" fill="#0D41E1"/>
<path d="M28.9143 60.0443C29.099 60.5761 29.2467 61.0414 29.2467 61.0783C29.2467 61.1226 27.8213 61.1522 25.2363 61.1522C21.4402 61.1522 21.2112 61.1595 21.1004 61.2851C20.9306 61.4697 20.9453 61.7652 21.13 61.935C21.2777 62.068 21.5066 62.0753 28.1167 62.0753H34.9483L35.0886 61.8981C35.2659 61.6765 35.2659 61.4845 35.0812 61.2999C34.9483 61.1669 34.8375 61.1522 33.7075 61.1522H32.4889L32.2304 60.5761C32.0901 60.2659 31.9498 59.9557 31.9128 59.8966C31.8759 59.8301 31.3072 59.6677 30.3102 59.4387C29.4609 59.2467 28.7297 59.0842 28.678 59.0842C28.6189 59.0842 28.7075 59.4313 28.9143 60.0443Z" fill="#0D41E1"/>
<path d="M69.6824 59.4387L68.1388 59.7858L67.8434 60.4727L67.5554 61.1522H66.3294C65.6573 61.1522 65.0665 61.1817 65.0222 61.2112C64.9778 61.2408 64.904 61.3368 64.8523 61.4328C64.7341 61.6544 64.8892 61.9793 65.1403 62.0458C65.2437 62.0753 68.3087 62.0975 71.9572 62.1049C79.0473 62.1123 78.966 62.1197 79.0399 61.7652C79.0768 61.6027 78.9734 61.2851 78.8552 61.2112C78.8035 61.1817 76.9645 61.1522 74.7637 61.1522C72.5554 61.1522 70.7533 61.13 70.7533 61.1078C70.7533 61.0783 70.901 60.6278 71.0857 60.1034C71.2703 59.579 71.418 59.1359 71.418 59.1137C71.418 59.062 71.2629 59.0916 69.6824 59.4387Z" fill="#0D41E1"/>
<path d="M30.2068 63.0207C30.2068 63.1093 30.7533 64.1285 30.9601 64.4239C31.0414 64.5421 31.1004 64.6381 31.0857 64.6529C31.0709 64.6603 28.8996 65.1773 26.2555 65.7976C23.6189 66.418 21.3811 66.9719 21.2925 67.031C21.0487 67.1861 21.0561 67.6071 21.3072 67.7696C21.4771 67.8804 21.7873 67.8139 28.2644 66.2925C33.1832 65.1329 35.0665 64.6603 35.1403 64.5716C35.2954 64.3575 35.2511 64.0473 35.0443 63.9143C34.8892 63.8109 34.7932 63.8036 34.483 63.8626L34.1063 63.9365L33.8035 63.4786C33.5229 63.0502 33.4638 63.0059 33.1832 62.9616C32.6883 62.8877 30.2068 62.9394 30.2068 63.0207Z" fill="#0D41E1"/>
<path d="M66.2408 63.4343C66.0561 63.7002 65.8789 63.9144 65.842 63.907C65.1256 63.7962 65.0812 63.7962 64.9261 63.9513C64.7341 64.1433 64.7267 64.3353 64.904 64.5495C65.0148 64.6824 66.0266 64.9409 71.7504 66.2925C78.9291 67.9838 78.7075 67.9468 78.8922 67.5406C78.966 67.3782 78.9513 67.3191 78.8257 67.1492C78.6854 66.9646 78.4786 66.9055 75.9158 66.3073C72.9247 65.6056 71.1152 65.1773 69.8154 64.8671C69.3575 64.7563 68.9808 64.6381 68.9808 64.6086C68.9808 64.579 69.0768 64.3944 69.1876 64.2024C69.6677 63.4048 69.8597 63.0059 69.7932 62.9616C69.7563 62.9395 69.0103 62.9247 68.1462 62.9321L66.5657 62.9395L66.2408 63.4343Z" fill="#0D41E1"/>
<path d="M33.7666 65.8789C32.9468 66.0709 32.2526 66.2408 32.2378 66.2556C32.1787 66.322 33.582 67.9247 34.3722 68.7075C37.8213 72.1123 42.1861 74.2467 47.127 74.9409C48.4343 75.1256 51.5953 75.1256 52.8804 74.9409C57.9395 74.2098 62.2083 72.1123 65.7016 68.6485C66.4993 67.8582 67.7991 66.3737 67.7991 66.2482C67.7991 66.226 67.1123 66.0414 66.2703 65.8493L64.7341 65.4948L63.9217 66.322C62.8434 67.4225 61.9203 68.1906 60.709 68.9956C58.0946 70.7312 54.9705 71.839 51.7725 72.1492C50.6573 72.26 48.3457 72.1935 47.164 72.0089C42.9395 71.3663 39.2984 69.52 36.2334 66.455C35.7164 65.938 35.2807 65.5096 35.2733 65.517C35.2733 65.5244 34.5938 65.6795 33.7666 65.8789Z" fill="#0D41E1"/>
</g>
<defs>
<clipPath id="clip0_70_136">
<rect width="100" height="75.3323" fill="white"/>
</clipPath>
</defs>
</svg>
